<svg xmlns="http://www.w3.org/2000/svg" xmlns:xlink="http://www.w3.org/1999/xlink" xmlns:ev="http://www.w3.org/2001/xml-events" width="400" height="128" viewBox="0 0 400 128">  <rect style="fill:#696969" x="0" y="0" width="4" height="128" />
  <rect style="fill:#000000" x="4" y="0" width="4" height="128" />
  <rect style="fill:#d2d2d2" x="8" y="0" width="4" height="128" />
  <rect style="fill:#4d4d4d" x="12" y="0" width="4" height="128" />
  <rect style="fill:#5d5d5d" x="16" y="0" width="4" height="128" />
  <rect style="fill:#313131" x="20" y="0" width="4" height="128" />
  <rect style="fill:#929292" x="24" y="0" width="4" height="128" />
  <rect style="fill:#282828" x="28" y="0" width="4" height="128" />
  <rect style="fill:#1c1c1c" x="32" y="0" width="4" height="128" />
  <rect style="fill:#6d6d6d" x="36" y="0" width="4" height="128" />
  <rect style="fill:#8e8e8e" x="40" y="0" width="4" height="128" />
  <rect style="fill:#2d2d2d" x="44" y="0" width="4" height="128" />
  <rect style="fill:#8e8e8e" x="48" y="0" width="4" height="128" />
  <rect style="fill:#595959" x="52" y="0" width="4" height="128" />
  <rect style="fill:#f7f7f7" x="56" y="0" width="4" height="128" />
  <rect style="fill:#141414" x="60" y="0" width="4" height="128" />
  <rect style="fill:#fbfbfb" x="64" y="0" width="4" height="128" />
  <rect style="fill:#696969" x="68" y="0" width="4" height="128" />
  <rect style="fill:#828282" x="72" y="0" width="4" height="128" />
  <rect style="fill:#242424" x="76" y="0" width="4" height="128" />
  <rect style="fill:#bababa" x="80" y="0" width="4" height="128" />
  <rect style="fill:#313131" x="84" y="0" width="4" height="128" />
  <rect style="fill:#555555" x="88" y="0" width="4" height="128" />
  <rect style="fill:#040404" x="92" y="0" width="4" height="128" />
  <rect style="fill:#555555" x="96" y="0" width="4" height="128" />
  <rect style="fill:#f7f7f7" x="100" y="0" width="4" height="128" />
  <rect style="fill:#fbfbfb" x="104" y="0" width="4" height="128" />
  <rect style="fill:#bebebe" x="108" y="0" width="4" height="128" />
  <rect style="fill:#000000" x="112" y="0" width="4" height="128" />
  <rect style="fill:#f3f3f3" x="116" y="0" width="4" height="128" />
  <rect style="fill:#dfdfdf" x="120" y="0" width="4" height="128" />
  <rect style="fill:#c6c6c6" x="124" y="0" width="4" height="128" />
  <rect style="fill:#2d2d2d" x="128" y="0" width="4" height="128" />
  <rect style="fill:#181818" x="132" y="0" width="4" height="128" />
  <rect style="fill:#696969" x="136" y="0" width="4" height="128" />
  <rect style="fill:#e3e3e3" x="140" y="0" width="4" height="128" />
  <rect style="fill:#929292" x="144" y="0" width="4" height="128" />
  <rect style="fill:#bebebe" x="148" y="0" width="4" height="128" />
  <rect style="fill:#393939" x="152" y="0" width="4" height="128" />
  <rect style="fill:#868686" x="156" y="0" width="4" height="128" />
  <rect style="fill:#b6b6b6" x="160" y="0" width="4" height="128" />
  <rect style="fill:#d2d2d2" x="164" y="0" width="4" height="128" />
  <rect style="fill:#cecece" x="168" y="0" width="4" height="128" />
  <rect style="fill:#393939" x="172" y="0" width="4" height="128" />
  <rect style="fill:#dfdfdf" x="176" y="0" width="4" height="128" />
  <rect style="fill:#353535" x="180" y="0" width="4" height="128" />
  <rect style="fill:#cecece" x="184" y="0" width="4" height="128" />
  <rect style="fill:#8e8e8e" x="188" y="0" width="4" height="128" />
  <rect style="fill:#2d2d2d" x="192" y="0" width="4" height="128" />
  <rect style="fill:#969696" x="196" y="0" width="4" height="128" />
  <rect style="fill:#868686" x="200" y="0" width="4" height="128" />
  <rect style="fill:#f7f7f7" x="204" y="0" width="4" height="128" />
  <rect style="fill:#080808" x="208" y="0" width="4" height="128" />
  <rect style="fill:#282828" x="212" y="0" width="4" height="128" />
  <rect style="fill:#fbfbfb" x="216" y="0" width="4" height="128" />
  <rect style="fill:#d7d7d7" x="220" y="0" width="4" height="128" />
  <rect style="fill:#242424" x="224" y="0" width="4" height="128" />
  <rect style="fill:#393939" x="228" y="0" width="4" height="128" />
  <rect style="fill:#8a8a8a" x="232" y="0" width="4" height="128" />
  <rect style="fill:#282828" x="236" y="0" width="4" height="128" />
  <rect style="fill:#515151" x="240" y="0" width="4" height="128" />
  <rect style="fill:#0c0c0c" x="244" y="0" width="4" height="128" />
  <rect style="fill:#b6b6b6" x="248" y="0" width="4" height="128" />
  <rect style="fill:#141414" x="252" y="0" width="4" height="128" />
  <rect style="fill:#ffffff" x="256" y="0" width="4" height="128" />
  <rect style="fill:#ebebeb" x="260" y="0" width="4" height="128" />
  <rect style="fill:#cacaca" x="264" y="0" width="4" height="128" />
  <rect style="fill:#c6c6c6" x="268" y="0" width="4" height="128" />
  <rect style="fill:#5d5d5d" x="272" y="0" width="4" height="128" />
  <rect style="fill:#aeaeae" x="276" y="0" width="4" height="128" />
  <rect style="fill:#c2c2c2" x="280" y="0" width="4" height="128" />
  <rect style="fill:#797979" x="284" y="0" width="4" height="128" />
  <rect style="fill:#0c0c0c" x="288" y="0" width="4" height="128" />
  <rect style="fill:#a2a2a2" x="292" y="0" width="4" height="128" />
  <rect style="fill:#515151" x="296" y="0" width="4" height="128" />
  <rect style="fill:#9e9e9e" x="300" y="0" width="4" height="128" />
  <rect style="fill:#696969" x="304" y="0" width="4" height="128" />
  <rect style="fill:#f3f3f3" x="308" y="0" width="4" height="128" />
  <rect style="fill:#313131" x="312" y="0" width="4" height="128" />
  <rect style="fill:#c6c6c6" x="316" y="0" width="4" height="128" />
  <rect style="fill:#b2b2b2" x="320" y="0" width="4" height="128" />
  <rect style="fill:#8e8e8e" x="324" y="0" width="4" height="128" />
  <rect style="fill:#141414" x="328" y="0" width="4" height="128" />
  <rect style="fill:#282828" x="332" y="0" width="4" height="128" />
  <rect style="fill:#f7f7f7" x="336" y="0" width="4" height="128" />
  <rect style="fill:#393939" x="340" y="0" width="4" height="128" />
  <rect style="fill:#282828" x="344" y="0" width="4" height="128" />
  <rect style="fill:#494949" x="348" y="0" width="4" height="128" />
  <rect style="fill:#8a8a8a" x="352" y="0" width="4" height="128" />
  <rect style="fill:#868686" x="356" y="0" width="4" height="128" />
  <rect style="fill:#000000" x="360" y="0" width="4" height="128" />
  <rect style="fill:#000000" x="364" y="0" width="4" height="128" />
  <rect style="fill:#7d7d7d" x="368" y="0" width="4" height="128" />
  <rect style="fill:#2d2d2d" x="372" y="0" width="4" height="128" />
  <rect style="fill:#9a9a9a" x="376" y="0" width="4" height="128" />
  <rect style="fill:#cecece" x="380" y="0" width="4" height="128" />
  <rect style="fill:#181818" x="384" y="0" width="4" height="128" />
  <rect style="fill:#828282" x="388" y="0" width="4" height="128" />
  <rect style="fill:#656565" x="392" y="0" width="4" height="128" />
  <rect style="fill:#cacaca" x="396" y="0" width="4" height="128" />
</svg>